<svg xmlns="http://www.w3.org/2000/svg" xmlns:xlink="http://www.w3.org/1999/xlink" width="112" zoomAndPan="magnify" viewBox="34 53 232 195" height="98" preserveAspectRatio="xMidYMid meet" version="1.0"><path fill="#183650" d="M 141.1875 169.609375 L 68.417969 169.609375 C 65.105469 169.609375 62.417969 172.289062 62.417969 175.613281 L 62.417969 176.117188 C 62.417969 179.429688 65.101562 182.117188 68.417969 182.117188 L 135.1875 182.117188 C 138.496094 182.117188 141.1875 184.800781 141.1875 188.117188 L 141.1875 188.875 C 141.1875 192.1875 138.503906 194.875 135.1875 194.875 L 78.839844 194.875 C 75.527344 194.875 72.839844 197.566406 72.839844 200.878906 L 72.839844 201.511719 C 72.839844 204.820312 75.523438 207.511719 78.839844 207.511719 L 157.972656 207.511719 C 161.285156 207.511719 163.972656 210.203125 163.972656 213.515625 L 163.972656 214.019531 C 163.972656 217.332031 161.292969 220.019531 157.972656 220.019531 L 126.816406 220.019531 C 125.855469 220.019531 125.070312 220.804688 125.070312 221.765625 L 125.070312 230.761719 C 125.070312 231.179688 125.105469 231.59375 125.203125 232.007812 C 128.453125 246.941406 141.179688 247.308594 141.179688 247.308594 L 183.570312 247.308594 C 184.054688 247.308594 184.554688 247.253906 185.035156 247.121094 C 198.964844 243.460938 198.964844 230.878906 198.964844 230.878906 L 198.964844 193.175781 L 141.179688 169.613281 Z M 198.058594 68.992188 C 196.792969 56.347656 185.71875 53.675781 183.101562 53.226562 C 182.777344 53.171875 182.453125 53.148438 182.125 53.148438 L 140.863281 53.148438 C 140.441406 53.148438 140.027344 53.183594 139.613281 53.28125 C 129.085938 55.6875 126.121094 65.207031 125.472656 67.945312 C 125.375 68.386719 125.320312 68.832031 125.320312 69.289062 L 125.320312 87.960938 L 198.085938 107.152344 L 198.085938 69.636719 C 198.085938 69.425781 198.078125 69.210938 198.046875 69 Z M 198.058594 68.992188 " fill-opacity="1" fill-rule="nonzero"/><path fill="#309595" d="M 265.3125 170.957031 C 265.308594 170.800781 265.296875 170.644531 265.296875 170.496094 L 265.296875 129.304688 C 265.296875 129.058594 265.277344 128.808594 265.253906 128.566406 C 263.71875 115.84375 252.144531 113.550781 249.613281 113.203125 C 249.335938 113.164062 249.058594 113.148438 248.789062 113.148438 L 204.078125 113.148438 C 200.765625 113.148438 198.089844 110.464844 198.089844 107.148438 L 125.328125 87.953125 C 125.328125 91.265625 122.644531 93.941406 119.328125 93.941406 L 97.726562 93.941406 C 94.414062 93.941406 91.722656 96.636719 91.722656 99.949219 L 91.722656 101.105469 C 91.722656 104.429688 94.414062 107.113281 97.726562 107.113281 L 145.648438 107.089844 C 148.65625 107.089844 151.34375 109.21875 151.769531 112.195312 C 152.304688 115.894531 149.441406 119.082031 145.84375 119.082031 L 64.433594 119.082031 C 61.121094 119.082031 58.433594 121.765625 58.433594 125.082031 L 58.433594 125.71875 C 58.433594 129.03125 61.117188 131.71875 64.433594 131.71875 L 168.828125 131.71875 C 171.835938 131.71875 174.523438 133.855469 174.949219 136.824219 C 175.480469 140.539062 172.621094 143.71875 169.015625 143.71875 L 90.648438 143.71875 C 87.335938 143.71875 84.648438 146.398438 84.648438 149.71875 L 84.648438 150.984375 C 84.648438 154.296875 87.328125 156.984375 90.648438 156.984375 L 141.1875 156.984375 C 144.496094 156.984375 147.191406 159.664062 147.191406 162.988281 L 147.191406 163.621094 C 147.191406 166.933594 144.496094 169.621094 141.1875 169.621094 L 198.972656 193.183594 C 198.972656 189.871094 201.652344 187.175781 204.972656 187.175781 L 250.21875 187.175781 C 250.675781 187.175781 251.125 187.132812 251.5625 187.039062 C 265.84375 183.691406 265.457031 172.625 265.320312 170.96875 Z M 179.003906 169.644531 L 167.304688 169.644531 C 163.824219 169.644531 160.972656 166.792969 160.972656 163.3125 C 160.972656 161.566406 161.6875 159.984375 162.828125 158.84375 C 163.980469 157.691406 165.5625 156.976562 167.296875 156.976562 L 178.996094 156.976562 C 182.476562 156.976562 185.328125 159.828125 185.328125 163.3125 C 185.328125 166.800781 182.476562 169.644531 178.996094 169.644531 Z M 199.183594 138.730469 C 198.773438 141.214844 196.769531 143.21875 194.28125 143.632812 C 190.175781 144.304688 186.679688 140.808594 187.351562 136.703125 C 187.757812 134.21875 189.761719 132.203125 192.253906 131.800781 C 196.355469 131.125 199.859375 134.628906 199.183594 138.730469 Z M 199.183594 138.730469 " fill-opacity="1" fill-rule="nonzero"/><path fill="#309595" d="M 79.007812 100.523438 C 79.007812 100.957031 78.964844 101.382812 78.882812 101.808594 C 78.796875 102.230469 78.671875 102.644531 78.507812 103.042969 C 78.339844 103.441406 78.140625 103.820312 77.898438 104.179688 C 77.660156 104.539062 77.386719 104.871094 77.082031 105.179688 C 76.773438 105.484375 76.441406 105.757812 76.082031 105.996094 C 75.722656 106.238281 75.34375 106.441406 74.945312 106.605469 C 74.546875 106.769531 74.132812 106.894531 73.710938 106.980469 C 73.285156 107.0625 72.859375 107.105469 72.425781 107.105469 C 71.992188 107.105469 71.566406 107.0625 71.140625 106.980469 C 70.71875 106.894531 70.304688 106.769531 69.90625 106.605469 C 69.507812 106.441406 69.128906 106.238281 68.769531 105.996094 C 68.410156 105.757812 68.078125 105.484375 67.773438 105.179688 C 67.464844 104.871094 67.195312 104.539062 66.953125 104.179688 C 66.714844 103.820312 66.511719 103.441406 66.34375 103.042969 C 66.179688 102.644531 66.054688 102.230469 65.96875 101.808594 C 65.886719 101.382812 65.84375 100.957031 65.84375 100.523438 C 65.84375 100.09375 65.886719 99.664062 65.96875 99.238281 C 66.054688 98.816406 66.179688 98.40625 66.34375 98.003906 C 66.511719 97.605469 66.714844 97.226562 66.953125 96.867188 C 67.195312 96.507812 67.464844 96.175781 67.773438 95.871094 C 68.078125 95.5625 68.410156 95.292969 68.769531 95.050781 C 69.128906 94.8125 69.507812 94.609375 69.90625 94.441406 C 70.304688 94.277344 70.71875 94.152344 71.140625 94.070312 C 71.566406 93.984375 71.992188 93.941406 72.425781 93.941406 C 72.859375 93.941406 73.285156 93.984375 73.710938 94.070312 C 74.132812 94.152344 74.546875 94.277344 74.945312 94.441406 C 75.34375 94.609375 75.722656 94.8125 76.082031 95.050781 C 76.441406 95.292969 76.773438 95.5625 77.082031 95.871094 C 77.386719 96.175781 77.660156 96.507812 77.898438 96.867188 C 78.140625 97.226562 78.339844 97.605469 78.507812 98.003906 C 78.671875 98.40625 78.796875 98.816406 78.882812 99.238281 C 78.964844 99.664062 79.007812 100.09375 79.007812 100.523438 Z M 79.007812 100.523438 " fill-opacity="1" fill-rule="nonzero"/><path fill="#309595" d="M 47.59375 125.292969 C 47.59375 125.714844 47.550781 126.132812 47.46875 126.542969 C 47.386719 126.957031 47.265625 127.359375 47.101562 127.75 C 46.941406 128.136719 46.746094 128.507812 46.511719 128.859375 C 46.277344 129.210938 46.007812 129.535156 45.710938 129.832031 C 45.414062 130.128906 45.089844 130.394531 44.738281 130.628906 C 44.386719 130.863281 44.019531 131.0625 43.628906 131.222656 C 43.238281 131.382812 42.839844 131.507812 42.425781 131.589844 C 42.011719 131.671875 41.59375 131.710938 41.171875 131.710938 C 40.75 131.710938 40.332031 131.671875 39.917969 131.589844 C 39.507812 131.507812 39.105469 131.382812 38.714844 131.222656 C 38.324219 131.0625 37.957031 130.863281 37.605469 130.628906 C 37.253906 130.394531 36.929688 130.128906 36.632812 129.832031 C 36.335938 129.535156 36.066406 129.210938 35.832031 128.859375 C 35.601562 128.507812 35.402344 128.136719 35.242188 127.75 C 35.078125 127.359375 34.957031 126.957031 34.875 126.542969 C 34.792969 126.132812 34.753906 125.714844 34.753906 125.292969 C 34.753906 124.871094 34.792969 124.453125 34.875 124.039062 C 34.957031 123.625 35.078125 123.226562 35.242188 122.835938 C 35.402344 122.445312 35.601562 122.074219 35.832031 121.726562 C 36.066406 121.375 36.335938 121.050781 36.632812 120.753906 C 36.929688 120.453125 37.253906 120.1875 37.605469 119.953125 C 37.957031 119.71875 38.324219 119.523438 38.714844 119.359375 C 39.105469 119.199219 39.507812 119.078125 39.917969 118.996094 C 40.332031 118.914062 40.75 118.871094 41.171875 118.871094 C 41.59375 118.871094 42.011719 118.914062 42.425781 118.996094 C 42.839844 119.078125 43.238281 119.199219 43.628906 119.359375 C 44.019531 119.523438 44.386719 119.71875 44.738281 119.953125 C 45.089844 120.1875 45.414062 120.453125 45.710938 120.753906 C 46.007812 121.050781 46.277344 121.375 46.511719 121.726562 C 46.746094 122.074219 46.941406 122.445312 47.101562 122.835938 C 47.265625 123.226562 47.386719 123.625 47.46875 124.039062 C 47.550781 124.453125 47.59375 124.871094 47.59375 125.292969 Z M 47.59375 125.292969 " fill-opacity="1" fill-rule="nonzero"/><path fill="#183650" d="M 64.859375 201.125 C 64.859375 201.546875 64.820312 201.964844 64.738281 202.378906 C 64.65625 202.792969 64.53125 203.191406 64.371094 203.582031 C 64.210938 203.972656 64.011719 204.34375 63.777344 204.691406 C 63.542969 205.042969 63.277344 205.367188 62.980469 205.664062 C 62.679688 205.964844 62.355469 206.230469 62.007812 206.464844 C 61.65625 206.699219 61.285156 206.894531 60.898438 207.058594 C 60.507812 207.21875 60.105469 207.339844 59.691406 207.421875 C 59.277344 207.503906 58.863281 207.546875 58.441406 207.546875 C 58.019531 207.546875 57.601562 207.503906 57.1875 207.421875 C 56.773438 207.339844 56.371094 207.21875 55.984375 207.058594 C 55.59375 206.894531 55.222656 206.699219 54.875 206.464844 C 54.523438 206.230469 54.199219 205.964844 53.898438 205.664062 C 53.601562 205.367188 53.335938 205.042969 53.101562 204.691406 C 52.867188 204.34375 52.671875 203.972656 52.507812 203.582031 C 52.347656 203.191406 52.226562 202.792969 52.144531 202.378906 C 52.0625 201.964844 52.019531 201.546875 52.019531 201.125 C 52.019531 200.703125 52.0625 200.285156 52.144531 199.875 C 52.226562 199.460938 52.347656 199.058594 52.507812 198.667969 C 52.671875 198.28125 52.867188 197.910156 53.101562 197.558594 C 53.335938 197.207031 53.601562 196.882812 53.898438 196.585938 C 54.199219 196.289062 54.523438 196.023438 54.875 195.789062 C 55.222656 195.554688 55.59375 195.355469 55.984375 195.195312 C 56.371094 195.035156 56.773438 194.910156 57.1875 194.828125 C 57.601562 194.746094 58.019531 194.707031 58.441406 194.707031 C 58.863281 194.707031 59.277344 194.746094 59.691406 194.828125 C 60.105469 194.910156 60.507812 195.035156 60.898438 195.195312 C 61.285156 195.355469 61.65625 195.554688 62.007812 195.789062 C 62.355469 196.023438 62.679688 196.289062 62.980469 196.585938 C 63.277344 196.882812 63.542969 197.207031 63.777344 197.558594 C 64.011719 197.910156 64.210938 198.28125 64.371094 198.667969 C 64.53125 199.058594 64.65625 199.460938 64.738281 199.875 C 64.820312 200.285156 64.859375 200.703125 64.859375 201.125 Z M 64.859375 201.125 " fill-opacity="1" fill-rule="nonzero"/><path fill="#183650" d="M 50.117188 176.058594 C 50.117188 176.480469 50.078125 176.898438 49.996094 177.308594 C 49.914062 177.722656 49.789062 178.125 49.628906 178.515625 C 49.46875 178.902344 49.269531 179.273438 49.035156 179.625 C 48.800781 179.976562 48.535156 180.300781 48.238281 180.597656 C 47.941406 180.894531 47.617188 181.160156 47.265625 181.394531 C 46.914062 181.628906 46.542969 181.828125 46.15625 181.988281 C 45.765625 182.152344 45.363281 182.273438 44.949219 182.355469 C 44.535156 182.4375 44.121094 182.476562 43.699219 182.476562 C 43.277344 182.476562 42.859375 182.4375 42.445312 182.355469 C 42.03125 182.273438 41.628906 182.152344 41.242188 181.988281 C 40.851562 181.828125 40.480469 181.628906 40.132812 181.394531 C 39.78125 181.160156 39.457031 180.894531 39.160156 180.597656 C 38.859375 180.300781 38.59375 179.976562 38.359375 179.625 C 38.125 179.273438 37.929688 178.902344 37.765625 178.515625 C 37.605469 178.125 37.484375 177.722656 37.402344 177.308594 C 37.320312 176.898438 37.277344 176.480469 37.277344 176.058594 C 37.277344 175.636719 37.320312 175.21875 37.402344 174.804688 C 37.484375 174.390625 37.605469 173.992188 37.765625 173.601562 C 37.929688 173.210938 38.125 172.839844 38.359375 172.492188 C 38.59375 172.140625 38.859375 171.816406 39.160156 171.519531 C 39.457031 171.21875 39.78125 170.953125 40.132812 170.71875 C 40.480469 170.484375 40.851562 170.289062 41.242188 170.125 C 41.628906 169.964844 42.03125 169.84375 42.445312 169.761719 C 42.859375 169.679688 43.277344 169.636719 43.699219 169.636719 C 44.121094 169.636719 44.535156 169.679688 44.949219 169.761719 C 45.363281 169.84375 45.765625 169.964844 46.15625 170.125 C 46.542969 170.289062 46.914062 170.484375 47.265625 170.71875 C 47.617188 170.953125 47.941406 171.21875 48.238281 171.519531 C 48.535156 171.816406 48.800781 172.140625 49.035156 172.492188 C 49.269531 172.839844 49.46875 173.210938 49.628906 173.601562 C 49.789062 173.992188 49.914062 174.390625 49.996094 174.804688 C 50.078125 175.21875 50.117188 175.636719 50.117188 176.058594 Z M 50.117188 176.058594 " fill-opacity="1" fill-rule="nonzero"/><path fill="#309595" d="M 74.710938 150.214844 C 74.710938 150.636719 74.671875 151.054688 74.589844 151.46875 C 74.507812 151.882812 74.382812 152.285156 74.222656 152.671875 C 74.0625 153.0625 73.863281 153.433594 73.628906 153.78125 C 73.394531 154.132812 73.128906 154.457031 72.832031 154.753906 C 72.535156 155.054688 72.210938 155.320312 71.859375 155.554688 C 71.507812 155.789062 71.136719 155.984375 70.75 156.148438 C 70.359375 156.308594 69.957031 156.429688 69.542969 156.511719 C 69.132812 156.59375 68.714844 156.636719 68.292969 156.636719 C 67.871094 156.636719 67.453125 156.59375 67.039062 156.511719 C 66.625 156.429688 66.226562 156.308594 65.835938 156.148438 C 65.445312 155.984375 65.074219 155.789062 64.726562 155.554688 C 64.375 155.320312 64.050781 155.054688 63.753906 154.753906 C 63.453125 154.457031 63.1875 154.132812 62.953125 153.78125 C 62.71875 153.433594 62.523438 153.0625 62.359375 152.671875 C 62.199219 152.285156 62.078125 151.882812 61.996094 151.46875 C 61.914062 151.054688 61.871094 150.636719 61.871094 150.214844 C 61.871094 149.792969 61.914062 149.375 61.996094 148.964844 C 62.078125 148.550781 62.199219 148.148438 62.359375 147.757812 C 62.523438 147.371094 62.71875 147 62.953125 146.648438 C 63.1875 146.296875 63.453125 145.972656 63.753906 145.675781 C 64.050781 145.378906 64.375 145.113281 64.726562 144.878906 C 65.074219 144.644531 65.445312 144.445312 65.835938 144.285156 C 66.226562 144.125 66.625 144 67.039062 143.917969 C 67.453125 143.835938 67.871094 143.796875 68.292969 143.796875 C 68.714844 143.796875 69.132812 143.835938 69.542969 143.917969 C 69.957031 144 70.359375 144.125 70.75 144.285156 C 71.136719 144.445312 71.507812 144.644531 71.859375 144.878906 C 72.210938 145.113281 72.535156 145.378906 72.832031 145.675781 C 73.128906 145.972656 73.394531 146.296875 73.628906 146.648438 C 73.863281 147 74.0625 147.371094 74.222656 147.757812 C 74.382812 148.148438 74.507812 148.550781 74.589844 148.964844 C 74.671875 149.375 74.710938 149.792969 74.710938 150.214844 Z M 74.710938 150.214844 " fill-opacity="1" fill-rule="nonzero"/></svg>